{
  "title": "Dark Matter S02E13 720p HDTV HEVC 2CH x265",
  "uid": 15845786,
  "size": 337169208,
  "categoryP": "video",
  "categoryS": "hd___tv_shows",
  "magnet": "?xt=urn:btih:0c5846c3ff01ab3a5e54e355c70dadac95caf4f0&amp;dn=Dark+Matter+S02E13+720p+HDTV+HEVC+2CH+x265&amp;tr=udp%3A%2F%2Ftracker.leechers-paradise.org%3A6969&amp;tr=udp%3A%2F%2Fzer0day.ch%3A1337&amp;tr=udp%3A%2F%2Fopen.demonii.com%3A1337&amp;tr=udp%3A%2F%2Ftracker.coppersurfer.tk%3A6969&amp;tr=udp%3A%2F%2Fexodus.desync.com%3A6969",
  "seeders": 63,
  "leechers": 4,
  "uploader": "nayhtut",
  "files": 1,
  "time": 1474093248,
  "description": "Source: Dark Matter S02E13 720p HDTV x264-AVS (784.2 MB)\r\n\r\n\r\nComplete name: Dark.Matter.S02E13.720p.HDTV.HEVC.2CH.x265.mkv\r\nFormat                                   : Matroska\r\nFormat version                           : Version 4 / Version 2\r\nFile size                                : 322 MiB\r\nDuration                                 : 42mn 41s\r\nOverall bit rate                         : 1 053 Kbps\r\nWriting application                      : Lavf57.25.100\r\nWriting library                          : Lavf57.25.100\r\n\r\nVideo\r\n\r\nID                                       : 1\r\nFormat                                   : V_MPEGH/ISO/HEVC\r\nCodec ID                                 : V_MPEGH/ISO/HEVC\r\nDuration                                 : 42mn 41s\r\nBit rate                                 : 840 Kbps\r\nWidth                                    : 1 280 pixels\r\nHeight                                   : 718 pixels\r\nDisplay aspect ratio                     : 16:9\r\nFrame rate                               : 25.000 fps\r\nBits/(Pixel*Frame)                       : 0.037\r\nStream size                              : 257 MiB (80%)\r\nWriting library                          : Lavc57.48.101 libx265\r\nDefault                                  : Yes\r\nForced                                   : No\r\nDURATION                                 : 00:42:41.731000000\r\n\r\nAudio\r\n\r\nID                                       : 2\r\nFormat                                   : AC-3\r\nFormat/Info                              : Audio Coding 3\r\nMode extension                           : CM (complete main)\r\nFormat settings, Endianness              : Big\r\nCodec ID                                 : A_AC3\r\nDuration                                 : 42mn 41s\r\nBit rate mode                            : Constant\r\nBit rate                                 : 192 Kbps\r\nChannel(s)                               : 2 channels\r\nChannel positions                        : Front: L R\r\nSampling rate                            : 48.0 KHz\r\nBit depth                                : 16 bits\r\nCompression mode                         : Lossy\r\nStream size                              : 58.6 MiB (18%)\r\nWriting library                          : Lavc57.24.102 ac3\r\nDefault                                  : Yes\r\nForced                                   : No\r\nDURATION                                 : 00:42:41.727000000",
  "parsed": {
    "xt": "urn:btih:0c5846c3ff01ab3a5e54e355c70dadac95caf4f0",
    "dn": "Dark Matter S02E13 720p HDTV HEVC 2CH x265",
    "tr": [
      "udp://exodus.desync.com:6969",
      "udp://open.demonii.com:1337",
      "udp://tracker.coppersurfer.tk:6969",
      "udp://tracker.leechers-paradise.org:6969",
      "udp://zer0day.ch:1337"
    ],
    "infoHash": "0c5846c3ff01ab3a5e54e355c70dadac95caf4f0",
    "infoHashBuffer": {
      "type": "Buffer",
      "data": [
        12,
        88,
        70,
        195,
        255,
        1,
        171,
        58,
        94,
        84,
        227,
        85,
        199,
        13,
        173,
        172,
        149,
        202,
        244,
        240
      ]
    },
    "name": "Dark Matter S02E13 720p HDTV HEVC 2CH x265",
    "announce": [
      "udp://exodus.desync.com:6969",
      "udp://open.demonii.com:1337",
      "udp://tracker.coppersurfer.tk:6969",
      "udp://tracker.leechers-paradise.org:6969",
      "udp://zer0day.ch:1337"
    ],
    "urlList": []
  },
  "previous": 67,
  "peers": 25,
  "last_updated": "2016-12-24T16:49:31.820Z"
}